<svg xmlns="http://www.w3.org/2000/svg" xmlns:xlink="http://www.w3.org/1999/xlink" width="48" zoomAndPan="magnify" viewBox="0 0 36 36.000001" height="48" preserveAspectRatio="xMidYMid meet" version="1.0"><defs><g/><clipPath id="eca1553dc2"><path d="M 0.488281 0 L 35.511719 0 L 35.511719 35.027344 L 0.488281 35.027344 Z M 0.488281 0 " clip-rule="nonzero"/></clipPath></defs><g clip-path="url(#eca1553dc2)"><path fill="#ffffff" d="M 0.488281 0 L 35.511719 0 L 35.511719 35.027344 L 0.488281 35.027344 Z M 0.488281 0 " fill-opacity="1" fill-rule="nonzero"/><path fill="#1f628e" d="M 0.488281 0 L 35.511719 0 L 35.511719 35.027344 L 0.488281 35.027344 Z M 0.488281 0 " fill-opacity="1" fill-rule="nonzero"/></g><g fill="#ffffff" fill-opacity="1"><g transform="translate(2.488682, 25.768597)"><g><path d="M 2.929688 0 L 9.0625 0 C 10.265625 0 11.128906 -0.792969 11.128906 -2 C 11.128906 -3.269531 10.289062 -3.972656 9.015625 -3.972656 L 5.132812 -3.972656 L 5.132812 -14.148438 C 5.132812 -15.511719 4.246094 -16.304688 2.996094 -16.304688 C 1.726562 -16.304688 0.839844 -15.511719 0.839844 -14.148438 L 0.839844 -2.113281 C 0.839844 -0.910156 1.792969 0 2.929688 0 Z M 1.566406 -13.332031 C 1.429688 -13.332031 1.363281 -13.582031 1.363281 -14.101562 C 1.363281 -15.167969 2.113281 -15.78125 3.089844 -15.78125 C 3.203125 -15.78125 3.269531 -15.714844 3.269531 -15.648438 C 3.269531 -15.601562 3.226562 -15.53125 3.109375 -15.488281 C 2.292969 -15.214844 1.839844 -14.761719 1.75 -13.601562 C 1.726562 -13.445312 1.679688 -13.332031 1.566406 -13.332031 Z M 5.789062 -2.976562 C 5.609375 -2.976562 5.449219 -3.089844 5.449219 -3.226562 C 5.449219 -3.359375 5.609375 -3.453125 5.789062 -3.453125 L 8.902344 -3.453125 C 9.082031 -3.453125 9.242188 -3.339844 9.242188 -3.226562 C 9.242188 -3.089844 9.082031 -2.976562 8.902344 -2.976562 Z M 5.789062 -2.976562 "/></g></g></g><g fill="#ffffff" fill-opacity="1"><g transform="translate(13.385356, 25.768597)"><g><path d="M 2.40625 0.136719 C 3.519531 0.136719 4.429688 -0.113281 4.8125 -2.65625 L 5.675781 -8.242188 L 5.722656 -8.242188 L 7.722656 -1.679688 C 8.105469 -0.386719 8.71875 0.136719 10.082031 0.136719 C 11.355469 0.136719 11.992188 -0.429688 12.332031 -1.523438 L 14.421875 -8.242188 L 14.464844 -8.242188 L 15.285156 -2.929688 C 15.625 -0.773438 15.988281 0.136719 17.714844 0.136719 C 19.03125 0.136719 19.78125 -0.863281 19.78125 -1.929688 C 19.78125 -2.203125 19.734375 -2.953125 19.53125 -4.042969 L 17.804688 -13.332031 C 17.394531 -15.578125 16.53125 -16.304688 14.921875 -16.304688 C 12.988281 -16.304688 12.445312 -14.964844 11.355469 -11.445312 L 10.105469 -7.449219 L 10.058594 -7.449219 L 8.449219 -12.398438 C 7.628906 -14.898438 7.109375 -16.304688 5.042969 -16.304688 C 3.679688 -16.304688 2.726562 -15.554688 2.316406 -13.351562 L 1.042969 -6.585938 C 0.453125 -3.40625 0.339844 -2.316406 0.339844 -1.929688 C 0.339844 -0.886719 1.089844 0.136719 2.40625 0.136719 Z M 10.945312 -6.789062 C 10.832031 -6.789062 10.765625 -6.859375 10.765625 -7.0625 C 10.765625 -7.289062 10.832031 -7.652344 11.015625 -8.199219 L 12.671875 -13.488281 C 13.195312 -15.148438 14.148438 -15.851562 14.964844 -15.851562 C 15.304688 -15.851562 15.417969 -15.761719 15.417969 -15.625 C 15.417969 -15.441406 15.328125 -15.441406 15.078125 -15.441406 C 14.058594 -15.441406 13.488281 -14.398438 13.171875 -13.375 L 11.355469 -7.609375 C 11.128906 -6.902344 11.058594 -6.789062 10.945312 -6.789062 Z M 1.089844 -1.953125 C 0.976562 -1.953125 0.910156 -2.066406 0.910156 -2.382812 C 0.910156 -2.613281 0.929688 -2.929688 1.023438 -3.359375 L 2.816406 -13.148438 C 3.179688 -15.078125 4.066406 -15.78125 4.996094 -15.78125 C 5.335938 -15.78125 5.609375 -15.714844 5.609375 -15.554688 C 5.609375 -15.488281 5.585938 -15.417969 5.472656 -15.417969 C 5.449219 -15.417969 5.449219 -15.417969 5.425781 -15.417969 L 5.199219 -15.441406 C 4.203125 -15.441406 3.542969 -14.308594 3.316406 -13.101562 L 1.429688 -2.816406 C 1.292969 -2.042969 1.226562 -1.953125 1.089844 -1.953125 Z M 1.089844 -1.953125 "/></g></g></g></svg>